<mxfile host="app.diagrams.net" modified="2023-11-15T15:57:58.005Z" agent="Mozilla/5.0 (Windows NT 10.0; Win64; x64) AppleWebKit/537.36 (KHTML, like Gecko) Chrome/119.0.0.0 Safari/537.36" etag="MUS5dZ5fWsW4jdmJ_3aG" version="22.1.1" type="google">
  <diagram name="Page-1" id="xQTv8ktl3ab50IudVMbU">
    <mxGraphModel grid="1" page="1" gridSize="10" guides="1" tooltips="1" connect="1" arrows="1" fold="1" pageScale="1" pageWidth="850" pageHeight="1100" math="0" shadow="0">
      <root>
        <mxCell id="0" />
        <mxCell id="1" parent="0" />
        <mxCell id="vz1PadjuBXA2zLePKKOo-1" value="&lt;b&gt;&lt;u&gt;Browser login&lt;/u&gt;&lt;/b&gt;" style="rounded=0;whiteSpace=wrap;html=1;dashed=1;verticalAlign=top;align=left;" vertex="1" parent="1">
          <mxGeometry x="20" y="20" width="800" height="240" as="geometry" />
        </mxCell>
        <mxCell id="QaVGa3plkibNSy2gWu0X-2" value="&lt;div&gt;&lt;b&gt;WebSecurityConfig&lt;/b&gt;&lt;/div&gt;&lt;div&gt;Entry point for security configuration &lt;br&gt;&lt;/div&gt;" style="rounded=0;whiteSpace=wrap;html=1;" vertex="1" parent="1">
          <mxGeometry x="270" y="40" width="240" height="60" as="geometry" />
        </mxCell>
        <mxCell id="QaVGa3plkibNSy2gWu0X-3" value="&lt;div align=&quot;center&quot;&gt;&lt;b&gt;OAuth2UserService: &lt;/b&gt;DefaultOAuth2UserService&lt;br&gt;&lt;/div&gt;&lt;div align=&quot;center&quot;&gt;&lt;br&gt;&lt;/div&gt;&lt;div align=&quot;center&quot;&gt;Does any required custom processing of user on login, and returns an &lt;i&gt;OAuth2User &lt;/i&gt;(e.g extract roles from database - not implemented yet)&lt;br&gt;&lt;/div&gt;" style="rounded=0;whiteSpace=wrap;html=1;align=center;" vertex="1" parent="1">
          <mxGeometry x="80" y="160" width="290" height="80" as="geometry" />
        </mxCell>
        <mxCell id="QaVGa3plkibNSy2gWu0X-6" value="" style="endArrow=none;html=1;rounded=0;entryX=0.375;entryY=1;entryDx=0;entryDy=0;entryPerimeter=0;exitX=0.462;exitY=0.025;exitDx=0;exitDy=0;exitPerimeter=0;startArrow=classic;startFill=1;" edge="1" parent="1" source="QaVGa3plkibNSy2gWu0X-3" target="QaVGa3plkibNSy2gWu0X-2">
          <mxGeometry width="50" height="50" relative="1" as="geometry">
            <mxPoint x="400" y="510" as="sourcePoint" />
            <mxPoint x="450" y="460" as="targetPoint" />
          </mxGeometry>
        </mxCell>
        <mxCell id="QaVGa3plkibNSy2gWu0X-7" value="configures" style="edgeLabel;html=1;align=center;verticalAlign=middle;resizable=0;points=[];" vertex="1" connectable="0" parent="QaVGa3plkibNSy2gWu0X-6">
          <mxGeometry x="-0.1325" y="3" relative="1" as="geometry">
            <mxPoint as="offset" />
          </mxGeometry>
        </mxCell>
        <mxCell id="QaVGa3plkibNSy2gWu0X-8" value="&lt;div align=&quot;center&quot;&gt;&lt;b&gt;OAuth2SuccessHandler: &lt;/b&gt;SimpleUrlAuthenticationSuccessHandler&lt;br&gt;&lt;/div&gt;&lt;div align=&quot;center&quot;&gt;&lt;br&gt;&lt;/div&gt;Generates a JWT token from &lt;i&gt;TokenProvider&lt;/i&gt; and redirects on sucessful authenticate - this redirects to the front end location configured in app config, passing the JWT token" style="rounded=0;whiteSpace=wrap;html=1;align=center;" vertex="1" parent="1">
          <mxGeometry x="400" y="160" width="370" height="80" as="geometry" />
        </mxCell>
        <mxCell id="QaVGa3plkibNSy2gWu0X-9" value="" style="endArrow=none;html=1;rounded=0;entryX=0.567;entryY=1;entryDx=0;entryDy=0;entryPerimeter=0;exitX=0.25;exitY=0;exitDx=0;exitDy=0;startArrow=classic;startFill=1;" edge="1" parent="1" source="QaVGa3plkibNSy2gWu0X-8" target="QaVGa3plkibNSy2gWu0X-2">
          <mxGeometry width="50" height="50" relative="1" as="geometry">
            <mxPoint x="224" y="172" as="sourcePoint" />
            <mxPoint x="370" y="110" as="targetPoint" />
          </mxGeometry>
        </mxCell>
        <mxCell id="QaVGa3plkibNSy2gWu0X-10" value="configures" style="edgeLabel;html=1;align=center;verticalAlign=middle;resizable=0;points=[];" vertex="1" connectable="0" parent="QaVGa3plkibNSy2gWu0X-9">
          <mxGeometry x="-0.1325" y="3" relative="1" as="geometry">
            <mxPoint as="offset" />
          </mxGeometry>
        </mxCell>
        <mxCell id="QaVGa3plkibNSy2gWu0X-11" value="&lt;div align=&quot;center&quot;&gt;&lt;b&gt;TokenProvider: &lt;/b&gt;JwtIssuer&lt;br&gt;&lt;/div&gt;&lt;div align=&quot;center&quot;&gt;&lt;br&gt;&lt;/div&gt;Creates JWTToken for an authenticated&lt;b&gt; &lt;/b&gt;&lt;i&gt;UserPrincipal&lt;/i&gt;" style="rounded=0;whiteSpace=wrap;html=1;align=center;" vertex="1" parent="1">
          <mxGeometry x="400" y="280" width="290" height="80" as="geometry" />
        </mxCell>
        <mxCell id="QaVGa3plkibNSy2gWu0X-12" value="" style="endArrow=none;html=1;rounded=0;entryX=0.5;entryY=1;entryDx=0;entryDy=0;exitX=0.5;exitY=0;exitDx=0;exitDy=0;startArrow=classic;startFill=1;" edge="1" parent="1" source="QaVGa3plkibNSy2gWu0X-11" target="QaVGa3plkibNSy2gWu0X-8">
          <mxGeometry width="50" height="50" relative="1" as="geometry">
            <mxPoint x="545" y="260" as="sourcePoint" />
            <mxPoint x="416" y="110" as="targetPoint" />
          </mxGeometry>
        </mxCell>
        <mxCell id="QaVGa3plkibNSy2gWu0X-13" value="uses" style="edgeLabel;html=1;align=center;verticalAlign=middle;resizable=0;points=[];" vertex="1" connectable="0" parent="QaVGa3plkibNSy2gWu0X-12">
          <mxGeometry x="-0.1325" y="3" relative="1" as="geometry">
            <mxPoint as="offset" />
          </mxGeometry>
        </mxCell>
        <mxCell id="vz1PadjuBXA2zLePKKOo-4" value="&lt;b&gt;&lt;u&gt;API login&lt;/u&gt;&lt;/b&gt;" style="rounded=0;whiteSpace=wrap;html=1;dashed=1;verticalAlign=top;align=left;" vertex="1" parent="1">
          <mxGeometry x="20" y="380" width="800" height="330" as="geometry" />
        </mxCell>
        <mxCell id="vz1PadjuBXA2zLePKKOo-5" value="&lt;div&gt;&lt;b&gt;LoginController&lt;/b&gt;&lt;/div&gt;&lt;div&gt;Handles /login/github requests&lt;/div&gt;" style="rounded=0;whiteSpace=wrap;html=1;" vertex="1" parent="1">
          <mxGeometry x="80" y="420" width="240" height="60" as="geometry" />
        </mxCell>
        <mxCell id="vz1PadjuBXA2zLePKKOo-6" value="&lt;div&gt;&lt;b&gt;GithubUserLoginService&lt;/b&gt;&lt;/div&gt;&lt;div&gt;Accepts github personal access token, authenticates and authorises via Github (i.e. confirms org membership) and issues JWT token. Also sets the Authentication for the current thread&#39;s&amp;nbsp; SecurityContext&lt;/div&gt;" style="rounded=0;whiteSpace=wrap;html=1;" vertex="1" parent="1">
          <mxGeometry x="90" y="520" width="300" height="90" as="geometry" />
        </mxCell>
        <mxCell id="vz1PadjuBXA2zLePKKOo-8" value="" style="endArrow=none;html=1;rounded=0;entryX=0.5;entryY=1;entryDx=0;entryDy=0;exitX=0.408;exitY=-0.053;exitDx=0;exitDy=0;startArrow=classic;startFill=1;exitPerimeter=0;" edge="1" parent="1" source="vz1PadjuBXA2zLePKKOo-6" target="vz1PadjuBXA2zLePKKOo-5">
          <mxGeometry width="50" height="50" relative="1" as="geometry">
            <mxPoint x="150" y="530" as="sourcePoint" />
            <mxPoint x="190" y="490" as="targetPoint" />
          </mxGeometry>
        </mxCell>
        <mxCell id="vz1PadjuBXA2zLePKKOo-9" value="uses" style="edgeLabel;html=1;align=center;verticalAlign=middle;resizable=0;points=[];" connectable="0" vertex="1" parent="vz1PadjuBXA2zLePKKOo-8">
          <mxGeometry x="-0.1325" y="3" relative="1" as="geometry">
            <mxPoint as="offset" />
          </mxGeometry>
        </mxCell>
        <mxCell id="vz1PadjuBXA2zLePKKOo-10" value="&lt;div&gt;&lt;b&gt;GithubClient&lt;/b&gt;&lt;/div&gt;&lt;div&gt;Http Client for GitHub API which includes personal access token in requests&lt;/div&gt;" style="rounded=0;whiteSpace=wrap;html=1;" vertex="1" parent="1">
          <mxGeometry x="90" y="640" width="240" height="60" as="geometry" />
        </mxCell>
        <mxCell id="vz1PadjuBXA2zLePKKOo-11" value="" style="endArrow=none;html=1;rounded=0;entryX=0.5;entryY=1;entryDx=0;entryDy=0;startArrow=classic;startFill=1;" edge="1" parent="1" source="vz1PadjuBXA2zLePKKOo-10" target="vz1PadjuBXA2zLePKKOo-6">
          <mxGeometry width="50" height="50" relative="1" as="geometry">
            <mxPoint x="222" y="527" as="sourcePoint" />
            <mxPoint x="210" y="490" as="targetPoint" />
          </mxGeometry>
        </mxCell>
        <mxCell id="vz1PadjuBXA2zLePKKOo-12" value="uses" style="edgeLabel;html=1;align=center;verticalAlign=middle;resizable=0;points=[];" connectable="0" vertex="1" parent="vz1PadjuBXA2zLePKKOo-11">
          <mxGeometry x="-0.1325" y="3" relative="1" as="geometry">
            <mxPoint as="offset" />
          </mxGeometry>
        </mxCell>
        <mxCell id="vz1PadjuBXA2zLePKKOo-13" value="" style="endArrow=none;html=1;rounded=0;entryX=0.75;entryY=0;entryDx=0;entryDy=0;startArrow=classic;startFill=1;" edge="1" parent="1" source="QaVGa3plkibNSy2gWu0X-11" target="vz1PadjuBXA2zLePKKOo-6">
          <mxGeometry width="50" height="50" relative="1" as="geometry">
            <mxPoint x="232" y="537" as="sourcePoint" />
            <mxPoint x="220" y="500" as="targetPoint" />
          </mxGeometry>
        </mxCell>
        <mxCell id="vz1PadjuBXA2zLePKKOo-14" value="uses" style="edgeLabel;html=1;align=center;verticalAlign=middle;resizable=0;points=[];" connectable="0" vertex="1" parent="vz1PadjuBXA2zLePKKOo-13">
          <mxGeometry x="-0.1325" y="3" relative="1" as="geometry">
            <mxPoint as="offset" />
          </mxGeometry>
        </mxCell>
        <mxCell id="vz1PadjuBXA2zLePKKOo-15" value="&lt;div&gt;&lt;b&gt;GithubAuthentication: &lt;/b&gt;Authentication&lt;/div&gt;&lt;div&gt;&lt;br&gt;&lt;/div&gt;&lt;div&gt;Token to set in SecurityContext to confirm to Spring that the request is authenitated&lt;/div&gt;" style="rounded=0;whiteSpace=wrap;html=1;" vertex="1" parent="1">
          <mxGeometry x="440" y="570" width="240" height="60" as="geometry" />
        </mxCell>
        <mxCell id="vz1PadjuBXA2zLePKKOo-16" value="" style="endArrow=none;html=1;rounded=0;entryX=1.011;entryY=0.582;entryDx=0;entryDy=0;exitX=0;exitY=0.5;exitDx=0;exitDy=0;startArrow=classic;startFill=1;entryPerimeter=0;" edge="1" parent="1" source="vz1PadjuBXA2zLePKKOo-15" target="vz1PadjuBXA2zLePKKOo-6">
          <mxGeometry width="50" height="50" relative="1" as="geometry">
            <mxPoint x="222" y="525" as="sourcePoint" />
            <mxPoint x="210" y="490" as="targetPoint" />
          </mxGeometry>
        </mxCell>
        <mxCell id="vz1PadjuBXA2zLePKKOo-17" value="uses" style="edgeLabel;html=1;align=center;verticalAlign=middle;resizable=0;points=[];" connectable="0" vertex="1" parent="vz1PadjuBXA2zLePKKOo-16">
          <mxGeometry x="-0.1325" y="3" relative="1" as="geometry">
            <mxPoint as="offset" />
          </mxGeometry>
        </mxCell>
      </root>
    </mxGraphModel>
  </diagram>
</mxfile>
